<svg xmlns="http://www.w3.org/2000/svg" width="960" height="540" viewBox="0 0 960 540">
<rect width="100%" height="100%" fill="#f6f4ef"/>
<text x="80" y="30" font-size="22" font-family="Georgia, serif" fill="#222">District Yearly Students/Unit Trend</text>
<line x1="80" y1="470" x2="920" y2="470" stroke="#444"/>
<line x1="80" y1="50" x2="80" y2="470" stroke="#444"/>
<line x1="80.0" y1="50" x2="80.0" y2="470" stroke="#ddd"/>
<text x="80.0" y="505" text-anchor="middle" font-size="12" fill="#333">2022</text>
<line x1="920.0" y1="50" x2="920.0" y2="470" stroke="#ddd"/>
<text x="920.0" y="505" text-anchor="middle" font-size="12" fill="#333">2023</text>
<line x1="80" y1="470.0" x2="920" y2="470.0" stroke="#e5e5e5"/>
<text x="70" y="474.0" text-anchor="end" font-size="12" fill="#333">2.50</text>
<line x1="80" y1="386.0" x2="920" y2="386.0" stroke="#e5e5e5"/>
<text x="70" y="390.0" text-anchor="end" font-size="12" fill="#333">2.60</text>
<line x1="80" y1="302.0" x2="920" y2="302.0" stroke="#e5e5e5"/>
<text x="70" y="306.0" text-anchor="end" font-size="12" fill="#333">2.70</text>
<line x1="80" y1="218.0" x2="920" y2="218.0" stroke="#e5e5e5"/>
<text x="70" y="222.0" text-anchor="end" font-size="12" fill="#333">2.80</text>
<line x1="80" y1="134.0" x2="920" y2="134.0" stroke="#e5e5e5"/>
<text x="70" y="138.0" text-anchor="end" font-size="12" fill="#333">2.90</text>
<line x1="80" y1="50.0" x2="920" y2="50.0" stroke="#e5e5e5"/>
<text x="70" y="54.0" text-anchor="end" font-size="12" fill="#333">3.00</text>
<polyline fill="none" stroke="#0b4f6c" stroke-width="3" points="80.0,50.0 920.0,327.2"/>
<circle cx="80.0" cy="50.0" r="3.5" fill="#0b4f6c"/>
<circle cx="920.0" cy="327.2" r="3.5" fill="#0b4f6c"/>
<line x1="740" y1="70" x2="760" y2="70" stroke="#0b4f6c" stroke-width="3"/>
<text x="768" y="74" font-size="12" fill="#222">District 1</text>
<polyline fill="none" stroke="#7a1f5c" stroke-width="3" points="80.0,470.0"/>
<circle cx="80.0" cy="470.0" r="3.5" fill="#7a1f5c"/>
<line x1="740" y1="92" x2="760" y2="92" stroke="#7a1f5c" stroke-width="3"/>
<text x="768" y="96" font-size="12" fill="#222">District 2</text>
</svg>
